<svg width="1151" height="44" viewBox="0 0 1151 44" fill="none" xmlns="http://www.w3.org/2000/svg">
<path d="M31.6471 10.4394C31.0613 9.85354 30.1032 9.85354 29.5173 10.4394L26.4643 13.4948C25.2134 12.6627 23.7779 12.2497 22.3365 12.2497C20.4174 12.2497 18.4737 12.9822 17.0337 14.4469L12.5336 18.9472C9.96732 21.5106 9.65099 25.4747 11.5787 28.384L8.52587 31.4394C7.94003 32.0253 7.94003 32.9745 8.52587 33.5606C8.81891 33.8536 9.20267 34 9.58643 34C9.97044 34 10.354 33.8536 10.647 33.5606L13.6998 30.5051C14.9509 31.3372 16.395 31.7502 17.8365 31.7502C19.7306 31.7502 21.6743 31.0178 23.1393 29.553L27.6307 25.053C30.197 22.4893 30.5133 18.5252 28.5854 15.616L31.6471 12.5605C32.2329 11.9747 32.2329 11.0252 31.6471 10.4394ZM26.8276 19.75C26.8276 20.9512 26.3589 22.0821 25.5096 22.9317L21.0182 27.4317C20.1657 28.2813 19.013 28.75 17.8365 28.75C17.1568 28.75 16.5064 28.5832 15.9088 28.2988L18.1223 26.0605C18.7082 25.4747 18.7082 24.5255 18.1223 23.9394C17.5612 23.3536 16.612 23.3536 16.0261 23.9394L13.7879 26.1777C13.5009 25.5829 13.3367 24.9325 13.3367 24.25C13.3367 23.0488 13.8054 21.9179 14.655 21.0683L19.1301 16.5683C19.9797 15.7187 21.1353 15.25 22.3365 15.25C23.0162 15.25 23.6635 15.4168 24.2613 15.7012L21.9791 17.9862C21.3933 18.572 21.3933 19.5212 21.9791 20.1073C22.2722 20.4004 22.6557 20.5468 23.0397 20.5468C23.4206 20.5468 23.8043 20.4004 24.0971 20.1073L26.3767 17.8223C26.6635 18.4168 26.8276 19.0674 26.8276 19.75Z" fill="#0065FE"/>
<path d="M40.0865 10V34" stroke="#0065FE" stroke-width="2" stroke-linecap="round"/>
<path d="M55.3825 29.336C52.0465 29.336 49.7185 27.752 48.7825 25.184L51.6145 23.528C52.2625 25.232 53.5585 26.096 55.4785 26.096C57.3265 26.096 58.1665 25.352 58.1665 24.32C58.1665 23.72 57.9025 23.264 57.3745 22.952C56.8465 22.616 55.9105 22.256 54.5425 21.872C53.0305 21.416 52.1185 21.056 51.0625 20.312C50.0305 19.544 49.4785 18.392 49.4785 16.856C49.4785 15.344 50.0065 14.12 51.0865 13.232C52.1665 12.32 53.4865 11.864 54.9985 11.864C57.7105 11.864 59.8465 13.256 60.9985 15.632L58.2145 17.24C57.5425 15.8 56.4625 15.08 54.9985 15.08C53.6305 15.08 52.7905 15.776 52.7905 16.76C52.7905 17.288 53.0065 17.72 53.4385 18.056C53.8945 18.368 54.7345 18.728 55.9825 19.112L57.1345 19.496C57.3985 19.568 57.7585 19.712 58.2145 19.904C58.6705 20.072 59.0305 20.24 59.2705 20.408C59.7745 20.72 60.5425 21.32 60.8545 21.896C61.2145 22.472 61.4785 23.312 61.4785 24.272C61.4785 25.832 60.9025 27.056 59.7745 27.968C58.6465 28.88 57.1825 29.336 55.3825 29.336ZM71.4895 29.336C68.9695 29.336 66.8815 28.496 65.2255 26.816C63.5695 25.136 62.7535 23.072 62.7535 20.6C62.7535 18.128 63.5695 16.04 65.2255 14.384C66.8815 12.704 68.9695 11.864 71.4895 11.864C74.5375 11.864 77.2735 13.4 78.7135 15.824L75.8575 17.48C75.0175 15.968 73.4095 15.08 71.4895 15.08C69.8575 15.08 68.5375 15.584 67.5295 16.616C66.5455 17.648 66.0415 18.968 66.0415 20.6C66.0415 22.208 66.5455 23.528 67.5295 24.56C68.5375 25.592 69.8575 26.096 71.4895 26.096C73.4095 26.096 75.0655 25.184 75.8575 23.72L78.7135 25.376C77.2735 27.8 74.5615 29.336 71.4895 29.336ZM80.748 29V12.2H84.06V29H80.748ZM92.6481 29.336C89.3121 29.336 86.9841 27.752 86.0481 25.184L88.8801 23.528C89.5281 25.232 90.8241 26.096 92.7441 26.096C94.5921 26.096 95.4321 25.352 95.4321 24.32C95.4321 23.72 95.1681 23.264 94.6401 22.952C94.1121 22.616 93.1761 22.256 91.8081 21.872C90.2961 21.416 89.3841 21.056 88.3281 20.312C87.2961 19.544 86.7441 18.392 86.7441 16.856C86.7441 15.344 87.2721 14.12 88.3521 13.232C89.4321 12.32 90.7521 11.864 92.2641 11.864C94.9761 11.864 97.1121 13.256 98.2641 15.632L95.4801 17.24C94.8081 15.8 93.7281 15.08 92.2641 15.08C90.8961 15.08 90.0561 15.776 90.0561 16.76C90.0561 17.288 90.2721 17.72 90.7041 18.056C91.1601 18.368 92.0001 18.728 93.2481 19.112L94.4001 19.496C94.6641 19.568 95.0241 19.712 95.4801 19.904C95.9361 20.072 96.2961 20.24 96.5361 20.408C97.0401 20.72 97.8081 21.32 98.1201 21.896C98.4801 22.472 98.7441 23.312 98.7441 24.272C98.7441 25.832 98.1681 27.056 97.0401 27.968C95.9121 28.88 94.4481 29.336 92.6481 29.336ZM106.125 29.336C102.789 29.336 100.461 27.752 99.5247 25.184L102.357 23.528C103.005 25.232 104.301 26.096 106.221 26.096C108.069 26.096 108.909 25.352 108.909 24.32C108.909 23.72 108.645 23.264 108.117 22.952C107.589 22.616 106.653 22.256 105.285 21.872C103.773 21.416 102.861 21.056 101.805 20.312C100.773 19.544 100.221 18.392 100.221 16.856C100.221 15.344 100.749 14.12 101.829 13.232C102.909 12.32 104.229 11.864 105.741 11.864C108.453 11.864 110.589 13.256 111.741 15.632L108.957 17.24C108.285 15.8 107.205 15.08 105.741 15.08C104.373 15.08 103.533 15.776 103.533 16.76C103.533 17.288 103.749 17.72 104.181 18.056C104.637 18.368 105.477 18.728 106.725 19.112L107.877 19.496C108.141 19.568 108.501 19.712 108.957 19.904C109.413 20.072 109.773 20.24 110.013 20.408C110.517 20.72 111.285 21.32 111.597 21.896C111.957 22.472 112.221 23.312 112.221 24.272C112.221 25.832 111.645 27.056 110.517 27.968C109.389 28.88 107.925 29.336 106.125 29.336ZM128.4 26.816C126.696 28.496 124.632 29.336 122.208 29.336C119.784 29.336 117.72 28.496 116.016 26.816C114.336 25.112 113.496 23.048 113.496 20.6C113.496 18.152 114.336 16.088 116.016 14.408C117.72 12.704 119.784 11.864 122.208 11.864C124.632 11.864 126.696 12.704 128.4 14.408C130.104 16.088 130.944 18.152 130.944 20.6C130.944 23.048 130.104 25.112 128.4 26.816ZM118.344 24.56C119.376 25.592 120.672 26.096 122.208 26.096C123.744 26.096 125.04 25.592 126.072 24.56C127.104 23.528 127.632 22.208 127.632 20.6C127.632 18.992 127.104 17.672 126.072 16.64C125.04 15.608 123.744 15.08 122.208 15.08C120.672 15.08 119.376 15.608 118.344 16.64C117.312 17.672 116.784 18.992 116.784 20.6C116.784 22.208 117.312 23.528 118.344 24.56ZM146.063 29H142.487L139.103 23.168H136.583V29H133.271V12.2H139.991C141.551 12.2 142.871 12.752 143.951 13.832C145.031 14.912 145.583 16.232 145.583 17.768C145.583 19.856 144.287 21.776 142.343 22.664L146.063 29ZM139.991 15.296H136.583V20.264H139.991C141.239 20.264 142.271 19.136 142.271 17.768C142.271 16.4 141.239 15.296 139.991 15.296Z" fill="#0065FE"/>
<path d="M308.226 13.4V26H306.57V16.154L302.448 23.012H302.232L298.11 16.172V26H296.436V13.4H298.326L302.34 20.06L306.336 13.4H308.226ZM317.041 17H318.715L315.043 26.558C314.659 27.578 314.119 28.352 313.423 28.88C312.739 29.42 311.947 29.66 311.047 29.6V28.142C312.151 28.226 312.961 27.614 313.477 26.306L313.639 25.964L309.715 17H311.389L314.449 24.056L317.041 17ZM332.659 25.028C331.783 25.832 330.649 26.234 329.257 26.234C327.865 26.234 326.725 25.832 325.837 25.028C324.961 24.212 324.523 23.126 324.523 21.77V13.4H326.197V21.698C326.197 22.586 326.461 23.294 326.989 23.822C327.517 24.338 328.273 24.596 329.257 24.596C330.241 24.596 330.997 24.338 331.525 23.822C332.053 23.294 332.317 22.586 332.317 21.698V13.4H333.973V21.77C333.973 23.126 333.535 24.212 332.659 25.028ZM344.002 26L341.176 21.176H338.206V26H336.532V13.4H341.572C342.652 13.4 343.576 13.784 344.344 14.552C345.112 15.308 345.496 16.226 345.496 17.306C345.496 18.122 345.25 18.866 344.758 19.538C344.278 20.21 343.654 20.684 342.886 20.96L345.856 26H344.002ZM338.206 14.966V19.664H341.572C342.196 19.664 342.724 19.436 343.156 18.98C343.6 18.512 343.822 17.954 343.822 17.306C343.822 16.658 343.6 16.106 343.156 15.65C342.724 15.194 342.196 14.966 341.572 14.966H338.206ZM349.21 24.416H354.646V26H347.536V13.4H349.21V24.416ZM357.513 19.43C357.513 19.778 357.687 20.06 358.035 20.276C358.383 20.48 358.803 20.648 359.295 20.78C359.787 20.9 360.279 21.044 360.771 21.212C361.263 21.368 361.683 21.644 362.031 22.04C362.379 22.424 362.553 22.922 362.553 23.534C362.553 24.35 362.235 25.004 361.599 25.496C360.975 25.988 360.171 26.234 359.187 26.234C358.311 26.234 357.561 26.042 356.937 25.658C356.313 25.274 355.869 24.764 355.605 24.128L356.955 23.354C357.099 23.786 357.369 24.128 357.765 24.38C358.161 24.632 358.635 24.758 359.187 24.758C359.703 24.758 360.129 24.662 360.465 24.47C360.801 24.266 360.969 23.954 360.969 23.534C360.969 23.186 360.795 22.91 360.447 22.706C360.099 22.49 359.679 22.322 359.187 22.202C358.695 22.07 358.203 21.92 357.711 21.752C357.219 21.584 356.799 21.308 356.451 20.924C356.103 20.54 355.929 20.048 355.929 19.448C355.929 18.668 356.229 18.026 356.829 17.522C357.441 17.018 358.203 16.766 359.115 16.766C359.847 16.766 360.495 16.934 361.059 17.27C361.635 17.594 362.067 18.05 362.355 18.638L361.041 19.376C360.717 18.608 360.075 18.224 359.115 18.224C358.671 18.224 358.293 18.332 357.981 18.548C357.669 18.752 357.513 19.046 357.513 19.43Z" fill="#0065FE"/>
<path d="M412.69 15.984H407.11V20.07H412.456V21.654H407.11V27H405.436V14.4H412.69V15.984ZM415.654 23.22C415.81 24.024 416.176 24.648 416.752 25.092C417.34 25.536 418.06 25.758 418.912 25.758C420.1 25.758 420.964 25.32 421.504 24.444L422.836 25.2C421.96 26.556 420.64 27.234 418.876 27.234C417.448 27.234 416.284 26.79 415.384 25.902C414.496 25.002 414.052 23.868 414.052 22.5C414.052 21.144 414.49 20.016 415.366 19.116C416.242 18.216 417.376 17.766 418.768 17.766C420.088 17.766 421.162 18.234 421.99 19.17C422.83 20.094 423.25 21.21 423.25 22.518C423.25 22.746 423.232 22.98 423.196 23.22H415.654ZM418.768 19.242C417.928 19.242 417.232 19.482 416.68 19.962C416.128 20.43 415.786 21.06 415.654 21.852H421.666C421.534 21 421.198 20.352 420.658 19.908C420.118 19.464 419.488 19.242 418.768 19.242ZM432.484 18H434.05V27H432.484V25.452C431.704 26.64 430.57 27.234 429.082 27.234C427.822 27.234 426.748 26.778 425.86 25.866C424.972 24.942 424.528 23.82 424.528 22.5C424.528 21.18 424.972 20.064 425.86 19.152C426.748 18.228 427.822 17.766 429.082 17.766C430.57 17.766 431.704 18.36 432.484 19.548V18ZM429.28 25.722C430.192 25.722 430.954 25.416 431.566 24.804C432.178 24.18 432.484 23.412 432.484 22.5C432.484 21.588 432.178 20.826 431.566 20.214C430.954 19.59 430.192 19.278 429.28 19.278C428.38 19.278 427.624 19.59 427.012 20.214C426.4 20.826 426.094 21.588 426.094 22.5C426.094 23.412 426.4 24.18 427.012 24.804C427.624 25.416 428.38 25.722 429.28 25.722ZM441.319 19.512H438.925V24.39C438.925 24.834 439.009 25.152 439.177 25.344C439.357 25.524 439.627 25.62 439.987 25.632C440.347 25.632 440.791 25.62 441.319 25.596V27C439.951 27.18 438.949 27.072 438.313 26.676C437.677 26.268 437.359 25.506 437.359 24.39V19.512H435.577V18H437.359V15.948L438.925 15.48V18H441.319V19.512ZM449.436 18H451.002V27H449.436V25.704C448.8 26.724 447.828 27.234 446.52 27.234C445.464 27.234 444.618 26.904 443.982 26.244C443.346 25.572 443.028 24.666 443.028 23.526V18H444.594V23.436C444.594 24.168 444.792 24.738 445.188 25.146C445.584 25.542 446.13 25.74 446.826 25.74C447.606 25.74 448.236 25.5 448.716 25.02C449.196 24.528 449.436 23.778 449.436 22.77V18ZM454.952 19.512C455.468 18.396 456.404 17.838 457.76 17.838V19.476C456.992 19.44 456.332 19.644 455.78 20.088C455.228 20.532 454.952 21.246 454.952 22.23V27H453.386V18H454.952V19.512ZM459.898 23.22C460.054 24.024 460.42 24.648 460.996 25.092C461.584 25.536 462.304 25.758 463.156 25.758C464.344 25.758 465.208 25.32 465.748 24.444L467.08 25.2C466.204 26.556 464.884 27.234 463.12 27.234C461.692 27.234 460.528 26.79 459.628 25.902C458.74 25.002 458.296 23.868 458.296 22.5C458.296 21.144 458.734 20.016 459.61 19.116C460.486 18.216 461.62 17.766 463.012 17.766C464.332 17.766 465.406 18.234 466.234 19.17C467.074 20.094 467.494 21.21 467.494 22.518C467.494 22.746 467.476 22.98 467.44 23.22H459.898ZM463.012 19.242C462.172 19.242 461.476 19.482 460.924 19.962C460.372 20.43 460.03 21.06 459.898 21.852H465.91C465.778 21 465.442 20.352 464.902 19.908C464.362 19.464 463.732 19.242 463.012 19.242ZM470.292 20.43C470.292 20.778 470.466 21.06 470.814 21.276C471.162 21.48 471.582 21.648 472.074 21.78C472.566 21.9 473.058 22.044 473.55 22.212C474.042 22.368 474.462 22.644 474.81 23.04C475.158 23.424 475.332 23.922 475.332 24.534C475.332 25.35 475.014 26.004 474.378 26.496C473.754 26.988 472.95 27.234 471.966 27.234C471.09 27.234 470.34 27.042 469.716 26.658C469.092 26.274 468.648 25.764 468.384 25.128L469.734 24.354C469.878 24.786 470.148 25.128 470.544 25.38C470.94 25.632 471.414 25.758 471.966 25.758C472.482 25.758 472.908 25.662 473.244 25.47C473.58 25.266 473.748 24.954 473.748 24.534C473.748 24.186 473.574 23.91 473.226 23.706C472.878 23.49 472.458 23.322 471.966 23.202C471.474 23.07 470.982 22.92 470.49 22.752C469.998 22.584 469.578 22.308 469.23 21.924C468.882 21.54 468.708 21.048 468.708 20.448C468.708 19.668 469.008 19.026 469.608 18.522C470.22 18.018 470.982 17.766 471.894 17.766C472.626 17.766 473.274 17.934 473.838 18.27C474.414 18.594 474.846 19.05 475.134 19.638L473.82 20.376C473.496 19.608 472.854 19.224 471.894 19.224C471.45 19.224 471.072 19.332 470.76 19.548C470.448 19.752 470.292 20.046 470.292 20.43Z" fill="#141414"/>
<path d="M486.086 19L492.086 25L498.086 19" stroke="#141414" stroke-linecap="round" stroke-linejoin="round"/>
<path d="M550.008 13.4C551.172 13.4 552.138 13.79 552.906 14.57C553.686 15.338 554.076 16.298 554.076 17.45C554.076 18.59 553.686 19.55 552.906 20.33C552.138 21.11 551.172 21.5 550.008 21.5H547.11V26H545.436V13.4H550.008ZM550.008 19.934C550.704 19.934 551.28 19.7 551.736 19.232C552.192 18.752 552.42 18.158 552.42 17.45C552.42 16.73 552.192 16.136 551.736 15.668C551.28 15.2 550.704 14.966 550.008 14.966H547.11V19.934H550.008ZM557.264 18.512C557.78 17.396 558.716 16.838 560.072 16.838V18.476C559.304 18.44 558.644 18.644 558.092 19.088C557.54 19.532 557.264 20.246 557.264 21.23V26H555.698V17H557.264V18.512ZM562.397 15.362C562.097 15.362 561.845 15.26 561.641 15.056C561.437 14.852 561.335 14.606 561.335 14.318C561.335 14.03 561.437 13.784 561.641 13.58C561.845 13.364 562.097 13.256 562.397 13.256C562.685 13.256 562.931 13.364 563.135 13.58C563.339 13.784 563.441 14.03 563.441 14.318C563.441 14.606 563.339 14.852 563.135 15.056C562.931 15.26 562.685 15.362 562.397 15.362ZM561.605 26V17H563.171V26H561.605ZM569.79 26.234C568.434 26.234 567.306 25.784 566.406 24.884C565.506 23.972 565.056 22.844 565.056 21.5C565.056 20.156 565.506 19.034 566.406 18.134C567.306 17.222 568.434 16.766 569.79 16.766C570.678 16.766 571.476 16.982 572.184 17.414C572.892 17.834 573.42 18.404 573.768 19.124L572.454 19.88C572.226 19.4 571.872 19.016 571.392 18.728C570.924 18.44 570.39 18.296 569.79 18.296C568.89 18.296 568.134 18.602 567.522 19.214C566.922 19.826 566.622 20.588 566.622 21.5C566.622 22.4 566.922 23.156 567.522 23.768C568.134 24.38 568.89 24.686 569.79 24.686C570.39 24.686 570.93 24.548 571.41 24.272C571.89 23.984 572.256 23.6 572.508 23.12L573.84 23.894C573.456 24.602 572.904 25.172 572.184 25.604C571.464 26.024 570.666 26.234 569.79 26.234ZM576.178 15.362C575.878 15.362 575.626 15.26 575.422 15.056C575.218 14.852 575.116 14.606 575.116 14.318C575.116 14.03 575.218 13.784 575.422 13.58C575.626 13.364 575.878 13.256 576.178 13.256C576.466 13.256 576.712 13.364 576.916 13.58C577.12 13.784 577.222 14.03 577.222 14.318C577.222 14.606 577.12 14.852 576.916 15.056C576.712 15.26 576.466 15.362 576.178 15.362ZM575.386 26V17H576.952V26H575.386ZM583.823 16.766C584.879 16.766 585.725 17.102 586.361 17.774C586.997 18.434 587.315 19.334 587.315 20.474V26H585.749V20.564C585.749 19.832 585.551 19.268 585.155 18.872C584.759 18.464 584.213 18.26 583.517 18.26C582.737 18.26 582.107 18.506 581.627 18.998C581.147 19.478 580.907 20.222 580.907 21.23V26H579.341V17H580.907V18.296C581.543 17.276 582.515 16.766 583.823 16.766ZM596.971 17H598.519V25.622C598.519 26.954 598.069 27.986 597.169 28.718C596.269 29.462 595.189 29.834 593.929 29.834C592.921 29.834 592.051 29.642 591.319 29.258C590.587 28.886 590.035 28.346 589.663 27.638L591.031 26.864C591.523 27.872 592.501 28.376 593.965 28.376C594.901 28.376 595.633 28.13 596.161 27.638C596.701 27.146 596.971 26.474 596.971 25.622V24.344C596.179 25.544 595.051 26.144 593.587 26.144C592.303 26.144 591.217 25.688 590.329 24.776C589.441 23.864 588.997 22.754 588.997 21.446C588.997 20.138 589.441 19.034 590.329 18.134C591.217 17.222 592.303 16.766 593.587 16.766C595.063 16.766 596.191 17.36 596.971 18.548V17ZM591.481 23.732C592.093 24.344 592.855 24.65 593.767 24.65C594.679 24.65 595.441 24.344 596.053 23.732C596.665 23.12 596.971 22.358 596.971 21.446C596.971 20.546 596.665 19.79 596.053 19.178C595.441 18.566 594.679 18.26 593.767 18.26C592.855 18.26 592.093 18.566 591.481 19.178C590.869 19.79 590.563 20.546 590.563 21.446C590.563 22.358 590.869 23.12 591.481 23.732Z" fill="#141414"/>
<path d="M649.734 26L648.708 23.174H643.038L642.012 26H640.23L644.928 13.4H646.818L651.516 26H649.734ZM643.614 21.608H648.132L645.864 15.398L643.614 21.608ZM657.323 16.766C658.379 16.766 659.225 17.102 659.861 17.774C660.497 18.434 660.815 19.334 660.815 20.474V26H659.249V20.564C659.249 19.832 659.051 19.268 658.655 18.872C658.259 18.464 657.713 18.26 657.017 18.26C656.237 18.26 655.607 18.506 655.127 18.998C654.647 19.478 654.407 20.222 654.407 21.23V26H652.841V17H654.407V18.296C655.043 17.276 656.015 16.766 657.323 16.766ZM670.453 17H672.019V26H670.453V24.452C669.673 25.64 668.539 26.234 667.051 26.234C665.791 26.234 664.717 25.778 663.829 24.866C662.941 23.942 662.497 22.82 662.497 21.5C662.497 20.18 662.941 19.064 663.829 18.152C664.717 17.228 665.791 16.766 667.051 16.766C668.539 16.766 669.673 17.36 670.453 18.548V17ZM667.249 24.722C668.161 24.722 668.923 24.416 669.535 23.804C670.147 23.18 670.453 22.412 670.453 21.5C670.453 20.588 670.147 19.826 669.535 19.214C668.923 18.59 668.161 18.278 667.249 18.278C666.349 18.278 665.593 18.59 664.981 19.214C664.369 19.826 664.063 20.588 664.063 21.5C664.063 22.412 664.369 23.18 664.981 23.804C665.593 24.416 666.349 24.722 667.249 24.722ZM674.392 26V12.86H675.958V26H674.392ZM684.629 17H686.303L682.631 26.558C682.247 27.578 681.707 28.352 681.011 28.88C680.327 29.42 679.535 29.66 678.635 29.6V28.142C679.739 28.226 680.549 27.614 681.065 26.306L681.227 25.964L677.303 17H678.977L682.037 24.056L684.629 17ZM692.506 18.512H690.112V23.39C690.112 23.834 690.196 24.152 690.364 24.344C690.544 24.524 690.814 24.62 691.174 24.632C691.534 24.632 691.978 24.62 692.506 24.596V26C691.138 26.18 690.136 26.072 689.5 25.676C688.864 25.268 688.546 24.506 688.546 23.39V18.512H686.764V17H688.546V14.948L690.112 14.48V17H692.506V18.512ZM695.152 15.362C694.852 15.362 694.6 15.26 694.396 15.056C694.192 14.852 694.09 14.606 694.09 14.318C694.09 14.03 694.192 13.784 694.396 13.58C694.6 13.364 694.852 13.256 695.152 13.256C695.44 13.256 695.686 13.364 695.89 13.58C696.094 13.784 696.196 14.03 696.196 14.318C696.196 14.606 696.094 14.852 695.89 15.056C695.686 15.26 695.44 15.362 695.152 15.362ZM694.36 26V17H695.926V26H694.36ZM702.546 26.234C701.19 26.234 700.062 25.784 699.162 24.884C698.262 23.972 697.812 22.844 697.812 21.5C697.812 20.156 698.262 19.034 699.162 18.134C700.062 17.222 701.19 16.766 702.546 16.766C703.434 16.766 704.232 16.982 704.94 17.414C705.648 17.834 706.176 18.404 706.524 19.124L705.21 19.88C704.982 19.4 704.628 19.016 704.148 18.728C703.68 18.44 703.146 18.296 702.546 18.296C701.646 18.296 700.89 18.602 700.278 19.214C699.678 19.826 699.378 20.588 699.378 21.5C699.378 22.4 699.678 23.156 700.278 23.768C700.89 24.38 701.646 24.686 702.546 24.686C703.146 24.686 703.686 24.548 704.166 24.272C704.646 23.984 705.012 23.6 705.264 23.12L706.596 23.894C706.212 24.602 705.66 25.172 704.94 25.604C704.22 26.024 703.422 26.234 702.546 26.234ZM709.421 19.43C709.421 19.778 709.595 20.06 709.943 20.276C710.291 20.48 710.711 20.648 711.203 20.78C711.695 20.9 712.187 21.044 712.679 21.212C713.171 21.368 713.591 21.644 713.939 22.04C714.287 22.424 714.461 22.922 714.461 23.534C714.461 24.35 714.143 25.004 713.507 25.496C712.883 25.988 712.079 26.234 711.095 26.234C710.219 26.234 709.469 26.042 708.845 25.658C708.221 25.274 707.777 24.764 707.513 24.128L708.863 23.354C709.007 23.786 709.277 24.128 709.673 24.38C710.069 24.632 710.543 24.758 711.095 24.758C711.611 24.758 712.037 24.662 712.373 24.47C712.709 24.266 712.877 23.954 712.877 23.534C712.877 23.186 712.703 22.91 712.355 22.706C712.007 22.49 711.587 22.322 711.095 22.202C710.603 22.07 710.111 21.92 709.619 21.752C709.127 21.584 708.707 21.308 708.359 20.924C708.011 20.54 707.837 20.048 707.837 19.448C707.837 18.668 708.137 18.026 708.737 17.522C709.349 17.018 710.111 16.766 711.023 16.766C711.755 16.766 712.403 16.934 712.967 17.27C713.543 17.594 713.975 18.05 714.263 18.638L712.949 19.376C712.625 18.608 711.983 18.224 711.023 18.224C710.579 18.224 710.201 18.332 709.889 18.548C709.577 18.752 709.421 19.046 709.421 19.43Z" fill="#141414"/>
<path d="M764.69 14.984H759.11V19.07H764.456V20.654H759.11V26H757.436V13.4H764.69V14.984ZM774.453 26L773.427 23.174H767.757L766.731 26H764.949L769.647 13.4H771.537L776.235 26H774.453ZM768.333 21.608H772.851L770.583 15.398L768.333 21.608ZM789.649 19.7C789.649 21.428 789.055 22.922 787.867 24.182L789.253 25.568L788.101 26.612L786.679 25.172C785.587 25.88 784.399 26.234 783.115 26.234C781.315 26.234 779.779 25.598 778.507 24.326C777.235 23.054 776.599 21.512 776.599 19.7C776.599 17.888 777.235 16.346 778.507 15.074C779.779 13.802 781.315 13.166 783.115 13.166C784.915 13.166 786.451 13.802 787.723 15.074C789.007 16.346 789.649 17.888 789.649 19.7ZM783.115 24.596C783.979 24.596 784.771 24.392 785.491 23.984L782.971 21.446L784.123 20.42L786.715 23.012C787.555 22.1 787.975 20.996 787.975 19.7C787.975 18.32 787.501 17.156 786.553 16.208C785.617 15.26 784.471 14.786 783.115 14.786C781.759 14.786 780.607 15.26 779.659 16.208C778.723 17.156 778.255 18.32 778.255 19.7C778.255 21.068 778.723 22.226 779.659 23.174C780.607 24.122 781.759 24.596 783.115 24.596ZM792.849 19.43C792.849 19.778 793.023 20.06 793.371 20.276C793.719 20.48 794.139 20.648 794.631 20.78C795.123 20.9 795.615 21.044 796.107 21.212C796.599 21.368 797.019 21.644 797.367 22.04C797.715 22.424 797.889 22.922 797.889 23.534C797.889 24.35 797.571 25.004 796.935 25.496C796.311 25.988 795.507 26.234 794.523 26.234C793.647 26.234 792.897 26.042 792.273 25.658C791.649 25.274 791.205 24.764 790.941 24.128L792.291 23.354C792.435 23.786 792.705 24.128 793.101 24.38C793.497 24.632 793.971 24.758 794.523 24.758C795.039 24.758 795.465 24.662 795.801 24.47C796.137 24.266 796.305 23.954 796.305 23.534C796.305 23.186 796.131 22.91 795.783 22.706C795.435 22.49 795.015 22.322 794.523 22.202C794.031 22.07 793.539 21.92 793.047 21.752C792.555 21.584 792.135 21.308 791.787 20.924C791.439 20.54 791.265 20.048 791.265 19.448C791.265 18.668 791.565 18.026 792.165 17.522C792.777 17.018 793.539 16.766 794.451 16.766C795.183 16.766 795.831 16.934 796.395 17.27C796.971 17.594 797.403 18.05 797.691 18.638L796.377 19.376C796.053 18.608 795.411 18.224 794.451 18.224C794.007 18.224 793.629 18.332 793.317 18.548C793.005 18.752 792.849 19.046 792.849 19.43Z" fill="#141414"/>
<path d="M942.046 24.24H946.606V26H940.206V14.8H942.046V24.24ZM951.386 26.208C950.213 26.208 949.215 25.8027 948.394 24.992C947.573 24.1813 947.162 23.184 947.162 22C947.162 20.816 947.573 19.8187 948.394 19.008C949.215 18.1973 950.213 17.792 951.386 17.792C952.57 17.792 953.567 18.1973 954.378 19.008C955.199 19.8187 955.61 20.816 955.61 22C955.61 23.184 955.199 24.1813 954.378 24.992C953.567 25.8027 952.57 26.208 951.386 26.208ZM949.61 23.808C950.09 24.288 950.682 24.528 951.386 24.528C952.09 24.528 952.682 24.288 953.162 23.808C953.642 23.328 953.882 22.7253 953.882 22C953.882 21.2747 953.642 20.672 953.162 20.192C952.682 19.712 952.09 19.472 951.386 19.472C950.682 19.472 950.09 19.712 949.61 20.192C949.13 20.672 948.89 21.2747 948.89 22C948.89 22.7253 949.13 23.328 949.61 23.808ZM963.541 18H965.237V25.632C965.237 26.848 964.837 27.7813 964.037 28.432C963.237 29.0827 962.266 29.408 961.125 29.408C959.279 29.408 958.015 28.7627 957.333 27.472L958.821 26.608C959.237 27.4293 960.015 27.84 961.157 27.84C961.903 27.84 962.485 27.6427 962.901 27.248C963.327 26.864 963.541 26.3253 963.541 25.632V24.656C962.89 25.584 961.962 26.048 960.757 26.048C959.626 26.048 958.671 25.648 957.893 24.848C957.114 24.0373 956.725 23.0613 956.725 21.92C956.725 20.7787 957.114 19.808 957.893 19.008C958.671 18.1973 959.626 17.792 960.757 17.792C961.962 17.792 962.89 18.256 963.541 19.184V18ZM959.173 23.712C959.663 24.192 960.271 24.432 960.997 24.432C961.722 24.432 962.325 24.192 962.805 23.712C963.295 23.232 963.541 22.6347 963.541 21.92C963.541 21.2053 963.295 20.608 962.805 20.128C962.325 19.648 961.722 19.408 960.997 19.408C960.271 19.408 959.663 19.648 959.173 20.128C958.693 20.608 958.453 21.2053 958.453 21.92C958.453 22.6347 958.693 23.232 959.173 23.712ZM972.883 16.48C972.669 16.6933 972.413 16.8 972.115 16.8C971.816 16.8 971.555 16.6933 971.331 16.48C971.117 16.256 971.011 15.9947 971.011 15.696C971.011 15.3973 971.117 15.1413 971.331 14.928C971.544 14.704 971.805 14.592 972.115 14.592C972.424 14.592 972.685 14.704 972.899 14.928C973.112 15.1413 973.219 15.3973 973.219 15.696C973.219 15.9947 973.107 16.256 972.883 16.48ZM971.251 26V18H972.979V26H971.251ZM979.193 17.792C980.11 17.792 980.852 18.0853 981.417 18.672C981.982 19.2587 982.265 20.064 982.265 21.088V26H980.537V21.264C980.537 20.6667 980.377 20.208 980.057 19.888C979.737 19.568 979.3 19.408 978.745 19.408C978.137 19.408 977.646 19.6 977.273 19.984C976.9 20.3573 976.713 20.9333 976.713 21.712V26H974.985V18H976.713V19.024C977.236 18.2027 978.062 17.792 979.193 17.792Z" fill="#0065FE"/>
<rect x="1008.09" width="142" height="44" rx="22" fill="#0065FE"/>
<path d="M1047.99 14.8V16.56H1044.83V26H1042.99V16.56H1039.83V14.8H1047.99ZM1049.92 19.344C1050.35 18.352 1051.17 17.856 1052.38 17.856V19.728C1051.72 19.6853 1051.14 19.8453 1050.65 20.208C1050.16 20.56 1049.92 21.1467 1049.92 21.968V26H1048.19V18H1049.92V19.344ZM1059.21 18H1061.05L1057.97 26.256C1057.21 28.3253 1055.9 29.3067 1054.07 29.2V27.584C1054.61 27.616 1055.05 27.4987 1055.38 27.232C1055.71 26.976 1055.98 26.5707 1056.2 26.016L1056.28 25.856L1052.89 18H1054.77L1057.16 23.808L1059.21 18ZM1070.32 16.256C1069.06 16.1387 1068.43 16.6667 1068.43 17.84V18H1070.32V19.664H1068.43V26H1066.7V19.664H1065.49V18H1066.7V17.84C1066.7 16.7413 1067.01 15.9093 1067.61 15.344C1068.23 14.768 1069.13 14.5173 1070.32 14.592V16.256ZM1074.73 26.208C1073.56 26.208 1072.56 25.8027 1071.74 24.992C1070.92 24.1813 1070.51 23.184 1070.51 22C1070.51 20.816 1070.92 19.8187 1071.74 19.008C1072.56 18.1973 1073.56 17.792 1074.73 17.792C1075.91 17.792 1076.91 18.1973 1077.72 19.008C1078.54 19.8187 1078.95 20.816 1078.95 22C1078.95 23.184 1078.54 24.1813 1077.72 24.992C1076.91 25.8027 1075.91 26.208 1074.73 26.208ZM1072.95 23.808C1073.43 24.288 1074.03 24.528 1074.73 24.528C1075.43 24.528 1076.03 24.288 1076.51 23.808C1076.99 23.328 1077.23 22.7253 1077.23 22C1077.23 21.2747 1076.99 20.672 1076.51 20.192C1076.03 19.712 1075.43 19.472 1074.73 19.472C1074.03 19.472 1073.43 19.712 1072.95 20.192C1072.47 20.672 1072.23 21.2747 1072.23 22C1072.23 22.7253 1072.47 23.328 1072.95 23.808ZM1082.24 19.344C1082.68 18.352 1083.5 17.856 1084.71 17.856V19.728C1084.05 19.6853 1083.47 19.8453 1082.98 20.208C1082.49 20.56 1082.24 21.1467 1082.24 21.968V26H1080.52V18H1082.24V19.344ZM1094.18 16.256C1092.92 16.1387 1092.29 16.6667 1092.29 17.84V18H1094.18V19.664H1092.29V26H1090.56V19.664H1089.35V18H1090.56V17.84C1090.56 16.7413 1090.87 15.9093 1091.47 15.344C1092.09 14.768 1092.99 14.5173 1094.18 14.592V16.256ZM1096.92 19.344C1097.35 18.352 1098.17 17.856 1099.38 17.856V19.728C1098.72 19.6853 1098.14 19.8453 1097.65 20.208C1097.16 20.56 1096.92 21.1467 1096.92 21.968V26H1095.19V18H1096.92V19.344ZM1101.64 22.736C1101.77 23.344 1102.06 23.8133 1102.52 24.144C1102.98 24.464 1103.54 24.624 1104.2 24.624C1105.12 24.624 1105.81 24.2933 1106.27 23.632L1107.69 24.464C1106.9 25.6267 1105.73 26.208 1104.19 26.208C1102.88 26.208 1101.83 25.8133 1101.03 25.024C1100.23 24.224 1099.83 23.216 1099.83 22C1099.83 20.8053 1100.23 19.808 1101.02 19.008C1101.81 18.1973 1102.82 17.792 1104.06 17.792C1105.23 17.792 1106.19 18.2027 1106.94 19.024C1107.7 19.8453 1108.07 20.8427 1108.07 22.016C1108.07 22.1973 1108.05 22.4373 1108.01 22.736H1101.64ZM1101.63 21.328H1106.33C1106.21 20.6773 1105.94 20.1867 1105.51 19.856C1105.1 19.5253 1104.61 19.36 1104.04 19.36C1103.4 19.36 1102.87 19.536 1102.44 19.888C1102.02 20.24 1101.74 20.72 1101.63 21.328ZM1110.91 22.736C1111.04 23.344 1111.33 23.8133 1111.79 24.144C1112.25 24.464 1112.81 24.624 1113.47 24.624C1114.38 24.624 1115.07 24.2933 1115.53 23.632L1116.96 24.464C1116.17 25.6267 1115 26.208 1113.45 26.208C1112.15 26.208 1111.1 25.8133 1110.3 25.024C1109.5 24.224 1109.1 23.216 1109.1 22C1109.1 20.8053 1109.49 19.808 1110.28 19.008C1111.07 18.1973 1112.09 17.792 1113.32 17.792C1114.5 17.792 1115.46 18.2027 1116.2 19.024C1116.96 19.8453 1117.34 20.8427 1117.34 22.016C1117.34 22.1973 1117.32 22.4373 1117.28 22.736H1110.91ZM1110.89 21.328H1115.6C1115.48 20.6773 1115.21 20.1867 1114.78 19.856C1114.36 19.5253 1113.87 19.36 1113.31 19.36C1112.67 19.36 1112.13 19.536 1111.71 19.888C1111.28 20.24 1111.01 20.72 1110.89 21.328Z" fill="white"/>
</svg>
