<svg width="23" height="22" viewBox="0 0 23 22" fill="none" xmlns="http://www.w3.org/2000/svg">
<path d="M20.7005 0.4375C21.1302 0.4375 21.511 0.583984 21.843 0.876953C22.1751 1.16992 22.3411 1.53125 22.3411 1.96094V20.4766C22.3411 20.9062 22.1751 21.2676 21.843 21.5605C21.511 21.8535 21.1302 22 20.7005 22H2.30203C1.87234 22 1.50125 21.8535 1.18875 21.5605C0.876251 21.2676 0.720001 20.9062 0.720001 20.4766V1.96094C0.720001 1.53125 0.876251 1.16992 1.18875 0.876953C1.50125 0.583984 1.87234 0.4375 2.30203 0.4375H20.7005ZM7.10672 18.8359V8.52344H3.94266V18.8359H7.10672ZM5.52469 7.11719C6.0325 7.11719 6.47195 6.93164 6.84305 6.56055C7.21414 6.18945 7.39969 5.75 7.39969 5.24219C7.39969 4.73438 7.21414 4.29492 6.84305 3.92383C6.47195 3.55273 6.0325 3.36719 5.52469 3.36719C5.01688 3.36719 4.57742 3.55273 4.20633 3.92383C3.83524 4.29492 3.64969 4.73438 3.64969 5.24219C3.64969 5.78906 3.82547 6.23828 4.17703 6.58984C4.52859 6.94141 4.97781 7.11719 5.52469 7.11719ZM19.1184 18.8359V13.1523C19.1184 11.5898 18.8548 10.3887 18.3274 9.54883C17.8001 8.70898 16.7942 8.28906 15.3098 8.28906C13.8255 8.28906 12.8098 8.83594 12.263 9.92969H12.2044V8.52344H9.1575V18.8359H12.3216V13.7383C12.3216 11.9805 12.9661 11.1016 14.2552 11.1016C14.763 11.1016 15.1438 11.2676 15.3977 11.5996C15.6516 11.9316 15.7981 12.2441 15.8372 12.5371C15.8763 12.8301 15.8958 13.25 15.8958 13.7969V18.8359H19.1184Z" fill="#141414"/>
</svg>
