<svg width="24" height="19" viewBox="0 0 24 19" fill="none" xmlns="http://www.w3.org/2000/svg">
<path d="M23.0859 2.47656C22.3438 3.53125 21.5625 4.35156 20.7422 4.9375V5.52344C20.7422 8.96094 19.5215 12.0664 17.0801 14.8398C14.6387 17.6133 11.3672 19 7.26562 19C4.60938 19 2.1875 18.2969 0 16.8906C0.234375 16.9297 0.605469 16.9492 1.11328 16.9492C3.30078 16.9492 5.27344 16.2656 7.03125 14.8984C6.01562 14.8594 5.09766 14.5371 4.27734 13.9316C3.45703 13.3262 2.89062 12.5547 2.57812 11.6172C2.96875 11.6953 3.26172 11.7344 3.45703 11.7344C3.88672 11.7344 4.31641 11.6758 4.74609 11.5586C3.65234 11.3633 2.74414 10.8262 2.02148 9.94727C1.29883 9.06836 0.9375 8.0625 0.9375 6.92969V6.8125C1.71875 7.24219 2.42188 7.45703 3.04688 7.45703C1.67969 6.51953 0.996094 5.19141 0.996094 3.47266C0.996094 2.57422 1.19141 1.79297 1.58203 1.12891C4.12109 4.21484 7.38281 5.85547 11.3672 6.05078C11.2891 5.58203 11.25 5.23047 11.25 4.99609C11.25 3.66797 11.709 2.54492 12.627 1.62695C13.5449 0.708984 14.668 0.25 15.9961 0.25C17.4023 0.25 18.5547 0.738281 19.4531 1.71484C20.5469 1.48047 21.543 1.10938 22.4414 0.601562C22.0898 1.73438 21.4062 2.59375 20.3906 3.17969C21.2891 3.0625 22.1875 2.82812 23.0859 2.47656Z" fill="#141414"/>
</svg>
